<svg width="800" height="800" viewBox="0 0 800 800" fill="none" xmlns="http://www.w3.org/2000/svg">
<path fill-rule="evenodd" clip-rule="evenodd" d="M800 400C800 620.914 620.914 800 400 800C314.389 800 235.059 773.105 170 727.302V630H72.6976C26.8954 564.941 0 485.611 0 400C0 179.086 179.086 0 400 0C485.611 0 564.941 26.8954 630 72.6976V170H727.302C773.105 235.059 800 314.389 800 400Z" fill="url(#paint0_linear)"/>
<circle cx="400" cy="400" r="325" fill="url(#paint1_linear)"/>
<path d="M603.178 536.669L254.686 561.335L415.091 520.91L565.561 515.429C565.561 515.429 589.692 512.003 609.566 520.91C629.439 529.817 603.178 536.669 603.178 536.669Z" fill="#1C1C1C" fill-opacity="0.16"/>
<path d="M451.29 494.189C461.936 496.245 470.453 498.985 475.422 498.985C480.39 498.985 528.698 477.485 562.722 462.672C598.92 446.913 613.115 424.303 613.115 424.303L592.532 384.564C592.532 384.564 568.4 403.748 468.324 438.691C456.258 442.904 395.218 490.078 347.665 520.91C307.716 546.811 190.098 544.891 190.098 544.891C197.905 549.002 224.876 565.387 247.589 562.705C270.301 560.023 369.668 554.483 381.024 546.946C392.379 539.41 422.19 516.799 422.19 516.799C422.19 516.799 420.769 505.837 425.738 503.096C436.069 497.398 440.223 492.053 451.29 494.189Z" fill="#343434"/>
<path d="M186.641 512.003C182.383 516.799 180.253 540.718 189.48 545.576C189.48 545.576 307.098 547.496 347.047 521.595C394.601 490.763 455.64 443.589 467.706 439.377C567.782 404.433 591.914 385.249 591.914 385.249C591.914 385.249 574.644 351.189 564.943 331.122C506.306 377.473 467.706 409.23 404.537 449.654C341.369 490.078 314.398 506.522 246.971 521.595C223.709 526.796 186.641 512.003 186.641 512.003Z" fill="#888DF4"/>
<path d="M249.718 490.635C216.359 509.755 190.807 507.079 186.549 511.875C186.549 511.875 223.617 526.668 246.879 521.467C314.306 506.394 341.277 489.95 404.445 449.526C467.614 409.101 506.214 377.345 564.851 330.993C556.334 318.661 538.566 296.497 528.654 300.847C520.846 304.272 504.521 339.215 504.521 339.215C504.521 339.215 475.926 364.29 459.807 367.307C443.48 370.362 417.931 365.251 417.931 365.251L390.96 355.659C390.96 355.659 346.955 439.248 321.403 457.063C295.852 474.877 279.528 468.025 279.528 468.025C279.528 468.025 272.43 477.617 249.718 490.635Z" fill="#FF512B"/>
<path d="M364.699 316.733L279.527 468.153C279.527 468.153 295.851 475.005 321.403 457.191C346.954 439.376 390.959 355.787 390.959 355.787C390.959 355.787 389.361 341.815 383.862 333.862C378.069 325.485 364.699 316.733 364.699 316.733Z" fill="#888DF4"/>
<path d="M324.952 431.84C323.204 430.153 305.788 422.248 305.788 422.248L300.82 430.47C300.82 430.47 318.564 440.062 319.984 440.062C324.242 440.062 328.501 435.266 324.952 431.84Z" fill="#F8F5F4"/>
<path d="M371.086 368.12C369.339 366.433 343.406 353.732 343.406 353.732L339.147 362.639C339.147 362.639 364.698 376.342 366.118 376.342C370.377 376.342 374.635 371.546 371.086 368.12Z" fill="#F8F5F4"/>
<path d="M356.181 390.045C354.434 388.358 330.63 377.027 330.63 377.027L325.662 385.934C325.662 385.934 349.794 398.267 351.213 398.267C355.472 398.267 359.73 393.471 356.181 390.045Z" fill="#F8F5F4"/>
<path d="M341.276 411.97C339.529 410.283 317.145 401.008 317.145 401.008L312.886 408.544C312.886 408.544 334.889 420.192 336.308 420.192C340.567 420.192 344.825 415.396 341.276 411.97Z" fill="#F8F5F4"/>
<path d="M387.411 316.733C387.411 343.978 408.704 359.213 435.675 357.843C462.645 356.472 499.553 335.233 499.553 335.233C513.748 323.585 511.619 318.104 511.619 318.104H489.616C489.616 318.104 511.619 309.197 523.685 294.123C534.583 280.508 542.848 253.014 542.848 253.014C542.848 253.014 525.627 265.132 516.587 269.457C507.547 273.783 492.455 278.364 492.455 278.364C492.455 278.364 532.065 244.63 542.848 215.33C562.012 163.258 533.621 129 533.621 129C533.621 129 520.136 186.162 488.197 206.423C438.513 237.94 411.192 259.865 407.994 264.661C400.813 275.428 394.508 279.735 390.959 292.753C387.411 305.77 387.411 308.584 387.411 316.732V316.733Z" fill="url(#paint2_linear)"/>
<defs>
<linearGradient id="paint0_linear" x1="400" y1="0" x2="400" y2="800" gradientUnits="userSpaceOnUse">
<stop stop-color="#FF9416"/>
<stop offset="1" stop-color="#9916FF"/>
</linearGradient>
<linearGradient id="paint1_linear" x1="400" y1="75" x2="400" y2="725" gradientUnits="userSpaceOnUse">
<stop offset="0.183154" stop-color="white"/>
<stop offset="1" stop-color="#B9BBE8" stop-opacity="0"/>
</linearGradient>
<linearGradient id="paint2_linear" x1="468.451" y1="129" x2="468.451" y2="357.928" gradientUnits="userSpaceOnUse">
<stop offset="0.40625" stop-color="#FF9416"/>
<stop offset="1" stop-color="#9916FF"/>
</linearGradient>
</defs>
</svg>
